<?xml version="1.0" encoding="UTF-8"?>
<svg width="30px" height="29px" viewBox="0 0 30 29" version="1.1" xmlns="http://www.w3.org/2000/svg" xmlns:xlink="http://www.w3.org/1999/xlink">
    <!-- Generator: Sketch 51.2 (57519) - http://www.bohemiancoding.com/sketch -->
    <title>Icon, Polygon</title>
    <desc>Created with Sketch.</desc>
    <defs></defs>
    <g id="Page-1" stroke="none" stroke-width="1" fill="none" fill-rule="evenodd">
        <g id="1-IDB-Visual-Design,-Initial" transform="translate(-238.000000, -138.000000)">
            <g id="Icon,-Polygon" transform="translate(238.000000, 138.000000)">
                <path d="M6.99998331,12.5937557 C6.99998331,12.6979222 6.96352514,12.7864635 6.89060857,12.8593801 C6.817692,12.9322967 6.7291507,12.9687548 6.6249842,12.9687548 L4.46873935,12.9687548 L4.46873935,15.1249997 C4.46873935,15.2291662 4.43228118,15.3177075 4.35936461,15.3906241 C4.28644803,15.4635406 4.19790674,15.4999988 4.09374024,15.4999988 L2.90624307,15.4999988 C2.80207657,15.4999988 2.71353528,15.4635406 2.6406187,15.3906241 C2.56770213,15.3177075 2.53124397,15.2291662 2.53124397,15.1249997 L2.53124397,12.9687548 L0.374999106,12.9687548 C0.270832608,12.9687548 0.182291312,12.9322967 0.109374739,12.8593801 C0.0364581669,12.7864635 0,12.6979222 0,12.5937557 L0,11.4062586 C0,11.3020921 0.0364581669,11.2135508 0.109374739,11.1406342 C0.182291312,11.0677176 0.270832608,11.0312595 0.374999106,11.0312595 L2.53124397,11.0312595 L2.53124397,8.8750146 C2.53124397,8.77084811 2.56770213,8.68230681 2.6406187,8.60939024 C2.71353528,8.53647366 2.80207657,8.5000155 2.90624307,8.5000155 L4.09374024,8.5000155 C4.19790674,8.5000155 4.28644803,8.53647366 4.35936461,8.60939024 C4.43228118,8.68230681 4.46873935,8.77084811 4.46873935,8.8750146 L4.46873935,11.0312595 L6.6249842,11.0312595 C6.7291507,11.0312595 6.817692,11.0677176 6.89060857,11.1406342 C6.96352514,11.2135508 6.99998331,11.3020921 6.99998331,11.4062586 L6.99998331,12.5937557 Z" id="plus-copy" fill="#384651"></path>
                <path d="M10.9999833,25.5937557 C10.9999833,25.6979222 10.9635251,25.7864635 10.8906086,25.8593801 C10.817692,25.9322967 10.7291507,25.9687548 10.6249842,25.9687548 L8.46873935,25.9687548 L8.46873935,28.1249997 C8.46873935,28.2291662 8.43228118,28.3177075 8.35936461,28.3906241 C8.28644803,28.4635406 8.19790674,28.4999988 8.09374024,28.4999988 L6.90624307,28.4999988 C6.80207657,28.4999988 6.71353528,28.4635406 6.6406187,28.3906241 C6.56770213,28.3177075 6.53124397,28.2291662 6.53124397,28.1249997 L6.53124397,25.9687548 L4.37499911,25.9687548 C4.27083261,25.9687548 4.18229131,25.9322967 4.10937474,25.8593801 C4.03645817,25.7864635 4,25.6979222 4,25.5937557 L4,24.4062586 C4,24.3020921 4.03645817,24.2135508 4.10937474,24.1406342 C4.18229131,24.0677176 4.27083261,24.0312595 4.37499911,24.0312595 L6.53124397,24.0312595 L6.53124397,21.8750146 C6.53124397,21.7708481 6.56770213,21.6823068 6.6406187,21.6093902 C6.71353528,21.5364737 6.80207657,21.5000155 6.90624307,21.5000155 L8.09374024,21.5000155 C8.19790674,21.5000155 8.28644803,21.5364737 8.35936461,21.6093902 C8.43228118,21.6823068 8.46873935,21.7708481 8.46873935,21.8750146 L8.46873935,24.0312595 L10.6249842,24.0312595 C10.7291507,24.0312595 10.817692,24.0677176 10.8906086,24.1406342 C10.9635251,24.2135508 10.9999833,24.3020921 10.9999833,24.4062586 L10.9999833,25.5937557 Z" id="plus-copy-7" fill="#384651"></path>
                <path d="M17.9999833,4.59375574 C17.9999833,4.69792223 17.9635251,4.78646353 17.8906086,4.8593801 C17.817692,4.93229668 17.7291507,4.96875484 17.6249842,4.96875484 L15.4687393,4.96875484 L15.4687393,7.1249997 C15.4687393,7.2291662 15.4322812,7.3177075 15.3593646,7.39062407 C15.286448,7.46354064 15.1979067,7.49999881 15.0937402,7.49999881 L13.9062431,7.49999881 C13.8020766,7.49999881 13.7135353,7.46354064 13.6406187,7.39062407 C13.5677021,7.3177075 13.531244,7.2291662 13.531244,7.1249997 L13.531244,4.96875484 L11.3749991,4.96875484 C11.2708326,4.96875484 11.1822913,4.93229668 11.1093747,4.8593801 C11.0364582,4.78646353 11,4.69792223 11,4.59375574 L11,3.40625857 C11,3.30209207 11.0364582,3.21355077 11.1093747,3.1406342 C11.1822913,3.06771763 11.2708326,3.03125946 11.3749991,3.03125946 L13.531244,3.03125946 L13.531244,0.875014603 C13.531244,0.770848105 13.5677021,0.682306809 13.6406187,0.609390236 C13.7135353,0.536473664 13.8020766,0.500015497 13.9062431,0.500015497 L15.0937402,0.500015497 C15.1979067,0.500015497 15.286448,0.536473664 15.3593646,0.609390236 C15.4322812,0.682306809 15.4687393,0.770848105 15.4687393,0.875014603 L15.4687393,3.03125946 L17.6249842,3.03125946 C17.7291507,3.03125946 17.817692,3.06771763 17.8906086,3.1406342 C17.9635251,3.21355077 17.9999833,3.30209207 17.9999833,3.40625857 L17.9999833,4.59375574 Z" id="plus-copy-4" fill="#384651"></path>
                <path d="M29.9999833,12.5937557 C29.9999833,12.6979222 29.9635251,12.7864635 29.8906086,12.8593801 C29.817692,12.9322967 29.7291507,12.9687548 29.6249842,12.9687548 L27.4687393,12.9687548 L27.4687393,15.1249997 C27.4687393,15.2291662 27.4322812,15.3177075 27.3593646,15.3906241 C27.286448,15.4635406 27.1979067,15.4999988 27.0937402,15.4999988 L25.9062431,15.4999988 C25.8020766,15.4999988 25.7135353,15.4635406 25.6406187,15.3906241 C25.5677021,15.3177075 25.531244,15.2291662 25.531244,15.1249997 L25.531244,12.9687548 L23.3749991,12.9687548 C23.2708326,12.9687548 23.1822913,12.9322967 23.1093747,12.8593801 C23.0364582,12.7864635 23,12.6979222 23,12.5937557 L23,11.4062586 C23,11.3020921 23.0364582,11.2135508 23.1093747,11.1406342 C23.1822913,11.0677176 23.2708326,11.0312595 23.3749991,11.0312595 L25.531244,11.0312595 L25.531244,8.8750146 C25.531244,8.77084811 25.5677021,8.68230681 25.6406187,8.60939024 C25.7135353,8.53647366 25.8020766,8.5000155 25.9062431,8.5000155 L27.0937402,8.5000155 C27.1979067,8.5000155 27.286448,8.53647366 27.3593646,8.60939024 C27.4322812,8.68230681 27.4687393,8.77084811 27.4687393,8.8750146 L27.4687393,11.0312595 L29.6249842,11.0312595 C29.7291507,11.0312595 29.817692,11.0677176 29.8906086,11.1406342 C29.9635251,11.2135508 29.9999833,11.3020921 29.9999833,11.4062586 L29.9999833,12.5937557 Z" id="plus-copy-5" fill="#384651"></path>
                <path d="M25.9999833,25.5937557 C25.9999833,25.6979222 25.9635251,25.7864635 25.8906086,25.8593801 C25.817692,25.9322967 25.7291507,25.9687548 25.6249842,25.9687548 L23.4687393,25.9687548 L23.4687393,28.1249997 C23.4687393,28.2291662 23.4322812,28.3177075 23.3593646,28.3906241 C23.286448,28.4635406 23.1979067,28.4999988 23.0937402,28.4999988 L21.9062431,28.4999988 C21.8020766,28.4999988 21.7135353,28.4635406 21.6406187,28.3906241 C21.5677021,28.3177075 21.531244,28.2291662 21.531244,28.1249997 L21.531244,25.9687548 L19.3749991,25.9687548 C19.2708326,25.9687548 19.1822913,25.9322967 19.1093747,25.8593801 C19.0364582,25.7864635 19,25.6979222 19,25.5937557 L19,24.4062586 C19,24.3020921 19.0364582,24.2135508 19.1093747,24.1406342 C19.1822913,24.0677176 19.2708326,24.0312595 19.3749991,24.0312595 L21.531244,24.0312595 L21.531244,21.8750146 C21.531244,21.7708481 21.5677021,21.6823068 21.6406187,21.6093902 C21.7135353,21.5364737 21.8020766,21.5000155 21.9062431,21.5000155 L23.0937402,21.5000155 C23.1979067,21.5000155 23.286448,21.5364737 23.3593646,21.6093902 C23.4322812,21.6823068 23.4687393,21.7708481 23.4687393,21.8750146 L23.4687393,24.0312595 L25.6249842,24.0312595 C25.7291507,24.0312595 25.817692,24.0677176 25.8906086,24.1406342 C25.9635251,24.2135508 25.9999833,24.3020921 25.9999833,24.4062586 L25.9999833,25.5937557 Z" id="plus-copy-6" fill="#384651"></path>
                <polygon id="Path-4" fill="#7D8389" fill-rule="nonzero" points="6.59610664 8.69389648 5.40389336 7.08808594 7.00970391 5.89587266 8.20191718 7.50168321"></polygon>
                <polygon id="Path-5" fill="#7D8389" fill-rule="nonzero" points="18.4830531 5.85601749 19.5169469 4.14398251 21.2289818 5.17787624 20.1950881 6.88991121"></polygon>
                <polygon id="Path-6" fill="#7D8389" fill-rule="nonzero" points="12.064209 27.050293 12.064209 25.050293 14.064209 25.050293 14.064209 27.050293"></polygon>
                <polygon id="Path-3" fill="#7D8389" fill-rule="nonzero" points="4.05911779 17.3387339 5.94088221 16.6612661 6.61835004 18.5430305 4.73658562 19.2204983"></polygon>
                <polygon id="Path-3-Copy" fill="#7D8389" fill-rule="nonzero" transform="translate(24.338734, 17.940882) scale(-1, 1) translate(-24.338734, -17.940882) " points="23.0591178 17.3387339 24.9408822 16.6612661 25.61835 18.5430305 23.7365856 19.2204983"></polygon>
            </g>
        </g>
    </g>
</svg>