<?xml version="1.0" encoding="UTF-8"?>
<svg width="25px" height="27px" viewBox="0 0 25 27" version="1.1" xmlns="http://www.w3.org/2000/svg" xmlns:xlink="http://www.w3.org/1999/xlink">
    <!-- Generator: Sketch 51.2 (57519) - http://www.bohemiancoding.com/sketch -->
    <title>Icon, drag</title>
    <desc>Created with Sketch.</desc>
    <defs></defs>
    <g id="Page-1" stroke="none" stroke-width="1" fill="none" fill-rule="evenodd">
        <g id="1-IDB-Visual-Design,-Initial" transform="translate(-69.000000, -140.000000)">
            <g id="Icon,-drag" transform="translate(69.000000, 140.000000)">
                <path d="M2,9 L4,9 L4,11 L2,11 L2,9 Z M2,14 L4,14 L4,16 L2,16 L2,14 Z" id="Path-2" fill="#7D8389" fill-rule="nonzero"></path>
                <path d="M21,9 L23,9 L23,11 L21,11 L21,9 Z M21,14 L23,14 L23,16 L21,16 L21,14 Z" id="Path-2-Copy" fill="#7D8389" fill-rule="nonzero"></path>
                <g id="Group-3" transform="translate(13.500000, 14.000000) rotate(-90.000000) translate(-13.500000, -14.000000) translate(3.000000, 10.000000)" fill="#7D8389" fill-rule="nonzero">
                    <path d="M0,0 L2,0 L2,2 L0,2 L0,0 Z M0,5 L2,5 L2,7 L0,7 L0,5 Z" id="Path-2-Copy-2"></path>
                    <path d="M19,0 L21,0 L21,2 L19,2 L19,0 Z M19,5 L21,5 L21,7 L19,7 L19,5 Z" id="Path-2-Copy-3"></path>
                </g>
                <g id="Handles" fill="#384651">
                    <path d="M6.99998331,4.59375574 C6.99998331,4.69792223 6.96352514,4.78646353 6.89060857,4.8593801 C6.817692,4.93229668 6.7291507,4.96875484 6.6249842,4.96875484 L4.46873935,4.96875484 L4.46873935,7.1249997 C4.46873935,7.2291662 4.43228118,7.3177075 4.35936461,7.39062407 C4.28644803,7.46354064 4.19790674,7.49999881 4.09374024,7.49999881 L2.90624307,7.49999881 C2.80207657,7.49999881 2.71353528,7.46354064 2.6406187,7.39062407 C2.56770213,7.3177075 2.53124397,7.2291662 2.53124397,7.1249997 L2.53124397,4.96875484 L0.374999106,4.96875484 C0.270832608,4.96875484 0.182291312,4.93229668 0.109374739,4.8593801 C0.0364581669,4.78646353 0,4.69792223 0,4.59375574 L0,3.40625857 C0,3.30209207 0.0364581669,3.21355077 0.109374739,3.1406342 C0.182291312,3.06771763 0.270832608,3.03125946 0.374999106,3.03125946 L2.53124397,3.03125946 L2.53124397,0.875014603 C2.53124397,0.770848105 2.56770213,0.682306809 2.6406187,0.609390236 C2.71353528,0.536473664 2.80207657,0.500015497 2.90624307,0.500015497 L4.09374024,0.500015497 C4.19790674,0.500015497 4.28644803,0.536473664 4.35936461,0.609390236 C4.43228118,0.682306809 4.46873935,0.770848105 4.46873935,0.875014603 L4.46873935,3.03125946 L6.6249842,3.03125946 C6.7291507,3.03125946 6.817692,3.06771763 6.89060857,3.1406342 C6.96352514,3.21355077 6.99998331,3.30209207 6.99998331,3.40625857 L6.99998331,4.59375574 Z" id="plus"></path>
                    <path d="M24.9999833,4.59375574 C24.9999833,4.69792223 24.9635251,4.78646353 24.8906086,4.8593801 C24.817692,4.93229668 24.7291507,4.96875484 24.6249842,4.96875484 L22.4687393,4.96875484 L22.4687393,7.1249997 C22.4687393,7.2291662 22.4322812,7.3177075 22.3593646,7.39062407 C22.286448,7.46354064 22.1979067,7.49999881 22.0937402,7.49999881 L20.9062431,7.49999881 C20.8020766,7.49999881 20.7135353,7.46354064 20.6406187,7.39062407 C20.5677021,7.3177075 20.531244,7.2291662 20.531244,7.1249997 L20.531244,4.96875484 L18.3749991,4.96875484 C18.2708326,4.96875484 18.1822913,4.93229668 18.1093747,4.8593801 C18.0364582,4.78646353 18,4.69792223 18,4.59375574 L18,3.40625857 C18,3.30209207 18.0364582,3.21355077 18.1093747,3.1406342 C18.1822913,3.06771763 18.2708326,3.03125946 18.3749991,3.03125946 L20.531244,3.03125946 L20.531244,0.875014603 C20.531244,0.770848105 20.5677021,0.682306809 20.6406187,0.609390236 C20.7135353,0.536473664 20.8020766,0.500015497 20.9062431,0.500015497 L22.0937402,0.500015497 C22.1979067,0.500015497 22.286448,0.536473664 22.3593646,0.609390236 C22.4322812,0.682306809 22.4687393,0.770848105 22.4687393,0.875014603 L22.4687393,3.03125946 L24.6249842,3.03125946 C24.7291507,3.03125946 24.817692,3.06771763 24.8906086,3.1406342 C24.9635251,3.21355077 24.9999833,3.30209207 24.9999833,3.40625857 L24.9999833,4.59375574 Z" id="plus-copy"></path>
                    <path d="M6.99998331,23.5937557 C6.99998331,23.6979222 6.96352514,23.7864635 6.89060857,23.8593801 C6.817692,23.9322967 6.7291507,23.9687548 6.6249842,23.9687548 L4.46873935,23.9687548 L4.46873935,26.1249997 C4.46873935,26.2291662 4.43228118,26.3177075 4.35936461,26.3906241 C4.28644803,26.4635406 4.19790674,26.4999988 4.09374024,26.4999988 L2.90624307,26.4999988 C2.80207657,26.4999988 2.71353528,26.4635406 2.6406187,26.3906241 C2.56770213,26.3177075 2.53124397,26.2291662 2.53124397,26.1249997 L2.53124397,23.9687548 L0.374999106,23.9687548 C0.270832608,23.9687548 0.182291312,23.9322967 0.109374739,23.8593801 C0.0364581669,23.7864635 0,23.6979222 0,23.5937557 L0,22.4062586 C0,22.3020921 0.0364581669,22.2135508 0.109374739,22.1406342 C0.182291312,22.0677176 0.270832608,22.0312595 0.374999106,22.0312595 L2.53124397,22.0312595 L2.53124397,19.8750146 C2.53124397,19.7708481 2.56770213,19.6823068 2.6406187,19.6093902 C2.71353528,19.5364737 2.80207657,19.5000155 2.90624307,19.5000155 L4.09374024,19.5000155 C4.19790674,19.5000155 4.28644803,19.5364737 4.35936461,19.6093902 C4.43228118,19.6823068 4.46873935,19.7708481 4.46873935,19.8750146 L4.46873935,22.0312595 L6.6249842,22.0312595 C6.7291507,22.0312595 6.817692,22.0677176 6.89060857,22.1406342 C6.96352514,22.2135508 6.99998331,22.3020921 6.99998331,22.4062586 L6.99998331,23.5937557 Z" id="plus-copy-2"></path>
                    <path d="M24.9999833,23.5937557 C24.9999833,23.6979222 24.9635251,23.7864635 24.8906086,23.8593801 C24.817692,23.9322967 24.7291507,23.9687548 24.6249842,23.9687548 L22.4687393,23.9687548 L22.4687393,26.1249997 C22.4687393,26.2291662 22.4322812,26.3177075 22.3593646,26.3906241 C22.286448,26.4635406 22.1979067,26.4999988 22.0937402,26.4999988 L20.9062431,26.4999988 C20.8020766,26.4999988 20.7135353,26.4635406 20.6406187,26.3906241 C20.5677021,26.3177075 20.531244,26.2291662 20.531244,26.1249997 L20.531244,23.9687548 L18.3749991,23.9687548 C18.2708326,23.9687548 18.1822913,23.9322967 18.1093747,23.8593801 C18.0364582,23.7864635 18,23.6979222 18,23.5937557 L18,22.4062586 C18,22.3020921 18.0364582,22.2135508 18.1093747,22.1406342 C18.1822913,22.0677176 18.2708326,22.0312595 18.3749991,22.0312595 L20.531244,22.0312595 L20.531244,19.8750146 C20.531244,19.7708481 20.5677021,19.6823068 20.6406187,19.6093902 C20.7135353,19.5364737 20.8020766,19.5000155 20.9062431,19.5000155 L22.0937402,19.5000155 C22.1979067,19.5000155 22.286448,19.5364737 22.3593646,19.6093902 C22.4322812,19.6823068 22.4687393,19.7708481 22.4687393,19.8750146 L22.4687393,22.0312595 L24.6249842,22.0312595 C24.7291507,22.0312595 24.817692,22.0677176 24.8906086,22.1406342 C24.9635251,22.2135508 24.9999833,22.3020921 24.9999833,22.4062586 L24.9999833,23.5937557 Z" id="plus-copy-3"></path>
                </g>
            </g>
        </g>
    </g>
</svg>