<?xml version="1.0" encoding="UTF-8"?>
<svg width="25px" height="25px" viewBox="0 0 25 25" version="1.1" xmlns="http://www.w3.org/2000/svg" xmlns:xlink="http://www.w3.org/1999/xlink">
    <!-- Generator: Sketch 51.2 (57519) - http://www.bohemiancoding.com/sketch -->
    <title>search</title>
    <desc>Created with Sketch.</desc>
    <defs>
        <filter x="-1.9%" y="-7.3%" width="103.8%" height="114.6%" filterUnits="objectBoundingBox" id="filter-1">
            <feOffset dx="0" dy="0" in="SourceAlpha" result="shadowOffsetOuter1"></feOffset>
            <feGaussianBlur stdDeviation="2" in="shadowOffsetOuter1" result="shadowBlurOuter1"></feGaussianBlur>
            <feColorMatrix values="0 0 0 0 0   0 0 0 0 0   0 0 0 0 0  0 0 0 0.25 0" type="matrix" in="shadowBlurOuter1" result="shadowMatrixOuter1"></feColorMatrix>
            <feMerge>
                <feMergeNode in="shadowMatrixOuter1"></feMergeNode>
                <feMergeNode in="SourceGraphic"></feMergeNode>
            </feMerge>
        </filter>
    </defs>
    <g id="Symbols" stroke="none" stroke-width="1" fill="none" fill-rule="evenodd">
        <g id="Search-Empty" transform="translate(-10.000000, -42.000000)" fill="#080808">
            <g id="Group-4" filter="url(#filter-1)">
                <path d="M30.9003503,61.697264 C30.9667564,61.7636701 30.9999595,61.8522117 30.9999595,61.9628883 C30.9999595,62.073565 30.9667564,62.1731741 30.9003503,62.2617157 L30.1366803,62.9921828 C30.0481387,63.0807244 29.9485295,63.1249949 29.8378529,63.1249949 C29.7271762,63.1249949 29.6386346,63.0807244 29.5722285,62.9921828 L25.5214569,58.9746142 C25.4550508,58.8860726 25.4218478,58.7975315 25.4218478,58.7089898 L25.4218478,58.2441472 C24.8020574,58.7753959 24.1047934,59.190434 23.3300559,59.4892614 C22.5553183,59.7880888 21.7473772,59.9375025 20.9062335,59.9375025 C19.6445178,59.9375025 18.4879452,59.6276076 17.4365152,59.0078172 C16.3850853,58.3880269 15.5494756,57.5524172 14.9296853,56.5009873 C14.3098949,55.4495573 14,54.2929847 14,53.031269 C14,51.7695533 14.3098949,50.6129807 14.9296853,49.5615507 C15.5494756,48.5101208 16.3850853,47.6745111 17.4365152,47.0547207 C18.4879452,46.4349304 19.6445178,46.1250355 20.9062335,46.1250355 C22.1679493,46.1250355 23.3245219,46.4349304 24.3759518,47.0547207 C25.4273818,47.6745111 26.2629914,48.5101208 26.8827818,49.5615507 C27.5025721,50.6129807 27.8124671,51.7695533 27.8124671,53.031269 C27.8124671,53.8724127 27.6630534,54.6803538 27.3642259,55.4550913 C27.0653985,56.2298289 26.6503605,56.9270929 26.1191117,57.5468832 L26.5839544,57.5468832 C26.694631,57.5468832 26.7831726,57.5800863 26.8495787,57.6464924 L30.9003503,61.697264 Z M20.9062335,58.3437563 C21.8580544,58.3437563 22.7434686,58.105801 23.5624772,57.6298908 C24.3814858,57.1539807 25.0289452,56.5065213 25.5048554,55.6875127 C25.9807655,54.868504 26.2187209,53.9830898 26.2187209,53.031269 C26.2187209,52.0794482 25.9807655,51.194034 25.5048554,50.3750253 C25.0289452,49.5560167 24.3814858,48.9085573 23.5624772,48.4326472 C22.7434686,47.956737 21.8580544,47.7187817 20.9062335,47.7187817 C19.9544127,47.7187817 19.0689985,47.956737 18.2499899,48.4326472 C17.4309812,48.9085573 16.7835218,49.5560167 16.3076117,50.3750253 C15.8317015,51.194034 15.5937462,52.0794482 15.5937462,53.031269 C15.5937462,53.9830898 15.8317015,54.868504 16.3076117,55.6875127 C16.7835218,56.5065213 17.4309812,57.1539807 18.2499899,57.6298908 C19.0689985,58.105801 19.9544127,58.3437563 20.9062335,58.3437563 Z" id="search"></path>
            </g>
        </g>
    </g>
</svg>